<mxfile host="app.diagrams.net" modified="2023-04-12T05:40:38.388Z" agent="Mozilla/5.0 (Windows NT 10.0; Win64; x64) AppleWebKit/537.36 (KHTML, like Gecko) Chrome/111.0.0.0 Safari/537.36" etag="YO6KGvveleLzVCRqUX62" version="21.1.4" type="github">
  <diagram name="登录" id="dXQXrfK3VU9OCKEoeBwD">
    <mxGraphModel dx="864" dy="646" grid="1" gridSize="15" guides="1" tooltips="1" connect="1" arrows="1" fold="1" page="1" pageScale="1" pageWidth="827" pageHeight="1169" math="0" shadow="0">
      <root>
        <mxCell id="0" />
        <mxCell id="1" parent="0" />
        <mxCell id="OWm0cxhAL7Y4cRjp1IhH-46" style="edgeStyle=orthogonalEdgeStyle;rounded=0;orthogonalLoop=1;jettySize=auto;html=1;exitX=0.5;exitY=1;exitDx=0;exitDy=0;entryX=0.5;entryY=0;entryDx=0;entryDy=0;" edge="1" parent="1" source="OWm0cxhAL7Y4cRjp1IhH-44" target="OWm0cxhAL7Y4cRjp1IhH-47">
          <mxGeometry relative="1" as="geometry">
            <mxPoint x="413.5" y="330" as="targetPoint" />
          </mxGeometry>
        </mxCell>
        <mxCell id="OWm0cxhAL7Y4cRjp1IhH-44" value="" style="ellipse;fillColor=strokeColor;html=1;" vertex="1" parent="1">
          <mxGeometry x="398.5" y="135" width="30" height="30" as="geometry" />
        </mxCell>
        <mxCell id="OWm0cxhAL7Y4cRjp1IhH-49" style="edgeStyle=orthogonalEdgeStyle;rounded=0;orthogonalLoop=1;jettySize=auto;html=1;exitX=0.5;exitY=1;exitDx=0;exitDy=0;" edge="1" parent="1" source="OWm0cxhAL7Y4cRjp1IhH-47" target="OWm0cxhAL7Y4cRjp1IhH-48">
          <mxGeometry relative="1" as="geometry" />
        </mxCell>
        <mxCell id="OWm0cxhAL7Y4cRjp1IhH-47" value="选择用户类型" style="html=1;align=center;verticalAlign=top;rounded=1;absoluteArcSize=1;arcSize=10;dashed=0;whiteSpace=wrap;" vertex="1" parent="1">
          <mxGeometry x="344" y="240" width="140" height="40" as="geometry" />
        </mxCell>
        <mxCell id="OWm0cxhAL7Y4cRjp1IhH-48" value="" style="html=1;points=[];perimeter=orthogonalPerimeter;fillColor=strokeColor;direction=south;" vertex="1" parent="1">
          <mxGeometry x="374.5" y="339" width="80" height="5" as="geometry" />
        </mxCell>
        <mxCell id="OWm0cxhAL7Y4cRjp1IhH-50" value="输入账号" style="html=1;align=center;verticalAlign=top;rounded=1;absoluteArcSize=1;arcSize=10;dashed=0;whiteSpace=wrap;" vertex="1" parent="1">
          <mxGeometry x="171" y="436.5" width="140" height="40" as="geometry" />
        </mxCell>
        <mxCell id="OWm0cxhAL7Y4cRjp1IhH-51" value="输入密码" style="html=1;align=center;verticalAlign=top;rounded=1;absoluteArcSize=1;arcSize=10;dashed=0;whiteSpace=wrap;" vertex="1" parent="1">
          <mxGeometry x="343.5" y="436.5" width="140" height="40" as="geometry" />
        </mxCell>
        <mxCell id="OWm0cxhAL7Y4cRjp1IhH-52" value="输入验证码" style="html=1;align=center;verticalAlign=top;rounded=1;absoluteArcSize=1;arcSize=10;dashed=0;whiteSpace=wrap;" vertex="1" parent="1">
          <mxGeometry x="516" y="436.5" width="140" height="40" as="geometry" />
        </mxCell>
        <mxCell id="OWm0cxhAL7Y4cRjp1IhH-55" value="" style="endArrow=open;startArrow=none;endFill=0;startFill=0;endSize=8;html=1;verticalAlign=bottom;labelBackgroundColor=none;strokeWidth=1;rounded=0;exitX=0.833;exitY=0.494;exitDx=0;exitDy=0;exitPerimeter=0;entryX=0.5;entryY=0;entryDx=0;entryDy=0;" edge="1" parent="1" source="OWm0cxhAL7Y4cRjp1IhH-48" target="OWm0cxhAL7Y4cRjp1IhH-50">
          <mxGeometry width="160" relative="1" as="geometry">
            <mxPoint x="414" y="361.5" as="sourcePoint" />
            <mxPoint x="574" y="361.5" as="targetPoint" />
          </mxGeometry>
        </mxCell>
        <mxCell id="OWm0cxhAL7Y4cRjp1IhH-56" value="" style="endArrow=open;startArrow=none;endFill=0;startFill=0;endSize=8;html=1;verticalAlign=bottom;labelBackgroundColor=none;strokeWidth=1;rounded=0;entryX=0.5;entryY=0;entryDx=0;entryDy=0;" edge="1" parent="1" target="OWm0cxhAL7Y4cRjp1IhH-51">
          <mxGeometry width="160" relative="1" as="geometry">
            <mxPoint x="412" y="341.5" as="sourcePoint" />
            <mxPoint x="604" y="376.5" as="targetPoint" />
          </mxGeometry>
        </mxCell>
        <mxCell id="OWm0cxhAL7Y4cRjp1IhH-57" value="" style="endArrow=open;startArrow=none;endFill=0;startFill=0;endSize=8;html=1;verticalAlign=bottom;labelBackgroundColor=none;strokeWidth=1;rounded=0;entryX=0.5;entryY=0;entryDx=0;entryDy=0;exitX=0.167;exitY=0.485;exitDx=0;exitDy=0;exitPerimeter=0;" edge="1" parent="1" source="OWm0cxhAL7Y4cRjp1IhH-48" target="OWm0cxhAL7Y4cRjp1IhH-52">
          <mxGeometry width="160" relative="1" as="geometry">
            <mxPoint x="427" y="359.5" as="sourcePoint" />
            <mxPoint x="427" y="451.5" as="targetPoint" />
          </mxGeometry>
        </mxCell>
        <mxCell id="OWm0cxhAL7Y4cRjp1IhH-64" style="edgeStyle=orthogonalEdgeStyle;rounded=0;orthogonalLoop=1;jettySize=auto;html=1;entryX=0.5;entryY=0;entryDx=0;entryDy=0;" edge="1" parent="1" source="OWm0cxhAL7Y4cRjp1IhH-58" target="OWm0cxhAL7Y4cRjp1IhH-63">
          <mxGeometry relative="1" as="geometry" />
        </mxCell>
        <mxCell id="OWm0cxhAL7Y4cRjp1IhH-58" value="" style="html=1;points=[];perimeter=orthogonalPerimeter;fillColor=strokeColor;direction=south;" vertex="1" parent="1">
          <mxGeometry x="373" y="562.5" width="80" height="5" as="geometry" />
        </mxCell>
        <mxCell id="OWm0cxhAL7Y4cRjp1IhH-59" value="" style="endArrow=open;startArrow=none;endFill=0;startFill=0;endSize=8;html=1;verticalAlign=bottom;labelBackgroundColor=none;strokeWidth=1;rounded=0;exitX=0.5;exitY=1;exitDx=0;exitDy=0;" edge="1" parent="1" source="OWm0cxhAL7Y4cRjp1IhH-50">
          <mxGeometry width="160" relative="1" as="geometry">
            <mxPoint x="263.5" y="510" as="sourcePoint" />
            <mxPoint x="413.5" y="565" as="targetPoint" />
          </mxGeometry>
        </mxCell>
        <mxCell id="OWm0cxhAL7Y4cRjp1IhH-60" value="" style="endArrow=open;startArrow=none;endFill=0;startFill=0;endSize=8;html=1;verticalAlign=bottom;labelBackgroundColor=none;strokeWidth=1;rounded=0;entryX=0.367;entryY=0.473;entryDx=0;entryDy=0;entryPerimeter=0;exitX=0.5;exitY=1;exitDx=0;exitDy=0;" edge="1" parent="1" source="OWm0cxhAL7Y4cRjp1IhH-51" target="OWm0cxhAL7Y4cRjp1IhH-58">
          <mxGeometry width="160" relative="1" as="geometry">
            <mxPoint x="256.5" y="491" as="sourcePoint" />
            <mxPoint x="426.5" y="583" as="targetPoint" />
          </mxGeometry>
        </mxCell>
        <mxCell id="OWm0cxhAL7Y4cRjp1IhH-61" value="" style="endArrow=open;startArrow=none;endFill=0;startFill=0;endSize=8;html=1;verticalAlign=bottom;labelBackgroundColor=none;strokeWidth=1;rounded=0;entryX=-0.167;entryY=0.423;entryDx=0;entryDy=0;entryPerimeter=0;exitX=0.5;exitY=1;exitDx=0;exitDy=0;" edge="1" parent="1" source="OWm0cxhAL7Y4cRjp1IhH-52" target="OWm0cxhAL7Y4cRjp1IhH-58">
          <mxGeometry width="160" relative="1" as="geometry">
            <mxPoint x="428.5" y="491" as="sourcePoint" />
            <mxPoint x="430.5" y="579" as="targetPoint" />
          </mxGeometry>
        </mxCell>
        <mxCell id="OWm0cxhAL7Y4cRjp1IhH-65" style="edgeStyle=orthogonalEdgeStyle;rounded=0;orthogonalLoop=1;jettySize=auto;html=1;exitX=1;exitY=0.5;exitDx=0;exitDy=0;entryX=1;entryY=0.5;entryDx=0;entryDy=0;" edge="1" parent="1" source="OWm0cxhAL7Y4cRjp1IhH-63" target="OWm0cxhAL7Y4cRjp1IhH-47">
          <mxGeometry relative="1" as="geometry">
            <Array as="points">
              <mxPoint x="690" y="668" />
              <mxPoint x="690" y="260" />
            </Array>
          </mxGeometry>
        </mxCell>
        <mxCell id="OWm0cxhAL7Y4cRjp1IhH-69" style="edgeStyle=orthogonalEdgeStyle;rounded=0;orthogonalLoop=1;jettySize=auto;html=1;entryX=0.5;entryY=0;entryDx=0;entryDy=0;" edge="1" parent="1" source="OWm0cxhAL7Y4cRjp1IhH-63" target="OWm0cxhAL7Y4cRjp1IhH-68">
          <mxGeometry relative="1" as="geometry" />
        </mxCell>
        <mxCell id="OWm0cxhAL7Y4cRjp1IhH-63" value="判断是否通过登录" style="rhombus;aspect=fixed;" vertex="1" parent="1">
          <mxGeometry x="360.5" y="615" width="105" height="105" as="geometry" />
        </mxCell>
        <mxCell id="OWm0cxhAL7Y4cRjp1IhH-67" value="未通过登录" style="text;html=1;align=center;verticalAlign=middle;resizable=0;points=[];autosize=1;strokeColor=none;fillColor=none;" vertex="1" parent="1">
          <mxGeometry x="690" y="460" width="90" height="30" as="geometry" />
        </mxCell>
        <mxCell id="OWm0cxhAL7Y4cRjp1IhH-72" value="" style="edgeStyle=orthogonalEdgeStyle;rounded=0;orthogonalLoop=1;jettySize=auto;html=1;" edge="1" parent="1" source="OWm0cxhAL7Y4cRjp1IhH-68" target="OWm0cxhAL7Y4cRjp1IhH-71">
          <mxGeometry relative="1" as="geometry" />
        </mxCell>
        <mxCell id="OWm0cxhAL7Y4cRjp1IhH-68" value="进入主界面" style="html=1;align=center;verticalAlign=top;rounded=1;absoluteArcSize=1;arcSize=10;dashed=0;whiteSpace=wrap;" vertex="1" parent="1">
          <mxGeometry x="344" y="795" width="140" height="40" as="geometry" />
        </mxCell>
        <mxCell id="OWm0cxhAL7Y4cRjp1IhH-70" value="OK" style="text;html=1;align=center;verticalAlign=middle;resizable=0;points=[];autosize=1;strokeColor=none;fillColor=none;" vertex="1" parent="1">
          <mxGeometry x="414" y="735" width="45" height="30" as="geometry" />
        </mxCell>
        <mxCell id="OWm0cxhAL7Y4cRjp1IhH-71" value="" style="ellipse;html=1;shape=endState;fillColor=strokeColor;" vertex="1" parent="1">
          <mxGeometry x="400" y="915" width="30" height="30" as="geometry" />
        </mxCell>
      </root>
    </mxGraphModel>
  </diagram>
</mxfile>
